<svg xmlns="http://www.w3.org/2000/svg" viewBox="0 0 24 24" fill="none"><path fill="currentColor" d="M9.25.012c-.075.007-.305.035-.509.058-3.094.352-5.953 2.291-7.525 5.102C.645 6.197.23 7.467.054 8.746c-.078.559-.07 2.06.016 2.619.352 2.291 1.294 4.164 2.886 5.735.247.243.607.567.798.724a10.026 10.026 0 0 0 8.957 1.802c3.634-1.017 6.438-4.078 7.115-7.768.61-3.304-.403-6.576-2.758-8.934C15.508 1.368 13.63.426 11.402.086 11.01.027 9.555-.024 9.25.012Zm1.568 3.55a6.5 6.5 0 0 1 1.944.574c.22.102.4.192.4.2 0 .007-1.988 1.997-4.42 4.43l-4.417 4.413-.191-.407c-.747-1.59-.833-3.276-.255-4.941.986-2.846 3.947-4.664 6.94-4.27Zm5.038 3.667c.716 1.524.818 3.143.309 4.762-.156.504-.563 1.313-.872 1.74-1.878 2.6-5.194 3.47-8.077 2.122l-.407-.191 4.416-4.414c2.433-2.432 4.424-4.418 4.431-4.418.008 0 .098.18.2.399Z"/></svg>