<svg xmlns="http://www.w3.org/2000/svg"  viewBox="0 0 24 24">
<path fill="currentColor" d="M5.91 12.865a.418.418 0 0 0-.455.09l-1.372 1.373-1.371-1.372A.418.418 0 0 0 2 13.25v8.333c0 .23.187.417.417.417H5.75c.23 0 .417-.187.417-.417V13.25a.417.417 0 0 0-.258-.385ZM9.378 9.622a.417.417 0 0 0-.589 0l-1.667 1.666a.417.417 0 0 0-.122.295v10c0 .23.187.417.417.417h3.333c.23 0 .417-.187.417-.417v-10a.42.42 0 0 0-.122-.295L9.378 9.622ZM14.378 7.955a.417.417 0 0 0-.589 0l-1.666 1.667a.417.417 0 0 0-.123.295v11.666c0 .23.187.417.417.417h3.333c.23 0 .417-.187.417-.417V9.917a.42.42 0 0 0-.122-.295l-1.667-1.667ZM20.212 6.288a.42.42 0 0 0-.295-.121h-.834a.42.42 0 0 0-.295.121l-1.666 1.667A.42.42 0 0 0 17 8.25v13.333c0 .23.187.417.417.417h3.333c.23 0 .417-.187.417-.417V7.417a.42.42 0 0 0-.122-.295l-.833-.834Z"/>
<path fill="currentColor" d="M20.75 2h-2.5a.417.417 0 0 0-.295.712l.956.955-3.16 3.16-1.372-1.371a.417.417 0 0 0-.59 0L10.75 8.494 9.378 7.122a.417.417 0 0 0-.589 0l-4.706 4.706-1.371-1.372a.417.417 0 0 0-.59.589l1.667 1.667a.415.415 0 0 0 .59 0l4.704-4.706 1.372 1.371a.417.417 0 0 0 .59 0l3.039-3.038 1.371 1.372a.417.417 0 0 0 .59 0L19.5 4.256l.955.955a.417.417 0 0 0 .712-.294v-2.5A.417.417 0 0 0 20.75 2Z"/>
</svg>