<svg xmlns="http://www.w3.org/2000/svg" viewBox="0 0 20 20"><path fill="currentColor" d="M18.05 0h-5.368c-1.006 0-1.946.4-2.617 1.067L.671 10.4C.201 10.867 0 11.467 0 12.067c0 .6.268 1.2.671 1.666l5.502 5.6c.47.467 1.074.667 1.678.667.604 0 1.208-.267 1.678-.667L18.923 10a3.668 3.668 0 0 0 1.074-2.6V2c.067-1.067-.873-2-1.946-2ZM6.309 11.333c-.537 0-1.007-.466-1.007-1 0-.533.47-1 1.007-1 .536 0 1.006.467 1.006 1 0 .534-.47 1-1.006 1Zm2.348 3c0 .2-.134.334-.335.334-.202 0-.336-.134-.336-.334V7.667c0-.2.134-.334.336-.334.201 0 .335.134.335.334v6.666Zm1.678-1c-.537 0-1.007-.466-1.007-1 0-.533.47-1 1.007-1 .537 0 1.006.467 1.006 1 0 .534-.47 1-1.006 1Zm5.033-6.666c-1.141 0-2.014-.867-2.014-2 0-1.134.873-2 2.014-2 1.14 0 2.013.866 2.013 2 0 1.133-.873 2-2.013 2Z"/></svg>