<svg xmlns="http://www.w3.org/2000/svg" viewBox="0 0 20 20" fill="none"><path fill="currentColor"  d="M15.372 11.43a3.368 3.368 0 1 1 0-6.736 3.368 3.368 0 0 1 0 6.737Zm0-5.388a2.02 2.02 0 1 0 0 4.041 2.02 2.02 0 0 0 0-4.041ZM9.64 15.015a3.93 3.93 0 0 0-3.699-2.237c-3.038 0-4.257 2.46-4.6 5.39H0c.438-3.655 2.162-6.737 5.941-6.737a5.12 5.12 0 0 1 4.547 2.459c-.336.33-.622.71-.848 1.124ZM5.94 10.084a4.042 4.042 0 1 1 0-8.084 4.042 4.042 0 0 1 0 8.084Zm0-6.737a2.695 2.695 0 1 0 0 5.39 2.695 2.695 0 0 0 0-5.39Zm9.431 9.431c2.964 0 4.298 2.47 4.628 5.39h-1.334c-.242-2.198-1.118-4.043-3.294-4.043s-3.051 1.847-3.294 4.042h-1.334c.33-2.917 1.664-5.389 4.628-5.389Z" /></svg>